<svg width="49.8" height="80.701" viewBox="0 0 49.8 80.701" xmlns="http://www.w3.org/2000/svg"><g id="svgGroup" stroke-linecap="round" fill-rule="evenodd" font-size="9pt" stroke="#facbaa" stroke-width="0.25mm" fill="#facbaa" style="stroke:#facbaa;stroke-width:0.25mm;fill:#facbaa"><path d="M 20.9 80.7 Q 15.5 80.7 10.7 78.75 Q 5.9 76.8 2.95 72.8 A 14.771 14.771 0 0 1 0.381 66.855 A 20.583 20.583 0 0 1 0 62.8 A 21.421 21.421 0 0 1 0.2 59.775 Q 0.431 58.162 0.927 56.848 A 9.522 9.522 0 0 1 2.05 54.7 Q 4.1 51.8 7.1 50.6 A 17.756 17.756 0 0 1 9.981 49.71 A 13.479 13.479 0 0 1 12.8 49.4 Q 10.1 52.3 8.7 55.8 Q 7.3 59.3 7.3 62.8 Q 7.3 66.5 8.95 69.7 Q 10.6 72.9 14 74.85 Q 16.962 76.549 21.29 76.768 A 25.943 25.943 0 0 0 22.6 76.8 Q 27.1 76.8 31.4 75.15 A 17.853 17.853 0 0 0 36.274 72.38 A 16.15 16.15 0 0 0 38.45 70.25 Q 41.2 67 41.2 62.2 A 14.064 14.064 0 0 0 40.692 58.345 A 11.507 11.507 0 0 0 39 54.8 A 21.997 21.997 0 0 0 34.849 50.424 A 26.106 26.106 0 0 0 33.35 49.3 A 91.009 91.009 0 0 0 26.968 45.253 A 100.205 100.205 0 0 0 26 44.7 A 84.186 84.186 0 0 1 19.083 40.356 A 77.496 77.496 0 0 1 18.65 40.05 A 23.647 23.647 0 0 1 14.417 36.234 A 21.057 21.057 0 0 1 13 34.4 Q 10.8 31.2 10.8 26.7 A 19.8 19.8 0 0 1 11.505 21.572 A 26.216 26.216 0 0 1 12.8 17.9 Q 14.8 13.3 18.55 9.2 Q 22.3 5.1 27.55 2.55 A 25.527 25.527 0 0 1 36.419 0.131 A 31.128 31.128 0 0 1 39.3 0 A 19.092 19.092 0 0 1 42.18 0.201 Q 45.743 0.747 47.436 2.772 A 5.844 5.844 0 0 1 47.5 2.85 Q 49.8 5.7 49.8 10 A 23.867 23.867 0 0 1 49.405 14.223 A 31.691 31.691 0 0 1 48.55 17.75 Q 47.3 21.9 45.5 25.65 A 93.281 93.281 0 0 1 44.178 28.301 Q 43.1 30.375 42.1 32 A 5.668 5.668 0 0 1 41.043 31.662 Q 40.057 31.227 39.55 30.45 A 4.575 4.575 0 0 1 38.87 28.634 A 6.043 6.043 0 0 1 38.8 27.7 Q 38.8 25.933 39.438 23.74 A 22.71 22.71 0 0 1 39.7 22.9 Q 40.6 20.2 41.75 17.3 Q 42.9 14.4 43.8 11.65 Q 44.567 9.309 44.68 7.366 A 11.382 11.382 0 0 0 44.7 6.7 A 5.375 5.375 0 0 0 44.545 5.373 A 3.747 3.747 0 0 0 43.5 3.55 Q 42.478 2.57 40.003 2.425 A 15.465 15.465 0 0 0 39.1 2.4 Q 34.4 2.4 30.4 4.6 Q 26.4 6.8 23.4 10.25 A 29.534 29.534 0 0 0 19.946 15.102 A 25.67 25.67 0 0 0 18.75 17.5 A 23.135 23.135 0 0 0 17.713 20.362 Q 17.1 22.511 17.1 24.4 A 10.62 10.62 0 0 0 17.663 27.912 A 9.353 9.353 0 0 0 19.25 30.75 A 20.465 20.465 0 0 0 22.244 33.721 A 26.41 26.41 0 0 0 24.8 35.55 A 149.473 149.473 0 0 0 30.153 38.775 A 171.401 171.401 0 0 0 32.05 39.85 Q 35.9 42 39.3 44.6 Q 42.7 47.2 44.85 50.75 A 14.447 14.447 0 0 1 46.639 55.478 A 20.234 20.234 0 0 1 47 59.4 Q 47 64.6 44.7 68.55 Q 42.4 72.5 38.55 75.2 Q 34.7 77.9 30.1 79.3 Q 25.5 80.7 20.9 80.7 Z" vector-effect="non-scaling-stroke"/></g></svg>