<svg width="296.1" height="80.701" viewBox="0 0 296.1 80.701" xmlns="http://www.w3.org/2000/svg"><g id="svgGroup" stroke-linecap="round" fill-rule="evenodd" font-size="9pt" stroke="#facbaa" stroke-width="0.25mm" fill="#facbaa" style="stroke:#facbaa;stroke-width:0.25mm;fill:#facbaa"><path d="M 22.9 80.7 Q 17.1 80.7 11.85 78.7 A 20.432 20.432 0 0 1 5.584 74.985 A 19.063 19.063 0 0 1 3.3 72.6 A 14.763 14.763 0 0 1 0.233 65.5 A 19.922 19.922 0 0 1 0 62.4 Q 0 57 2.4 53.95 Q 4.8 50.9 8.4 49.7 A 23.54 23.54 0 0 1 12.822 48.669 A 20.059 20.059 0 0 1 15.4 48.5 A 29.647 29.647 0 0 0 12.456 52.142 A 23.103 23.103 0 0 0 10.55 55.5 A 19.38 19.38 0 0 0 9.366 58.809 A 14.589 14.589 0 0 0 8.9 62.4 Q 8.9 65.8 10.65 68.75 A 12.094 12.094 0 0 0 13.976 72.355 A 15.681 15.681 0 0 0 15.9 73.55 Q 19.012 75.195 23.466 75.378 A 27.686 27.686 0 0 0 24.6 75.4 Q 29.1 75.4 33.35 73.9 A 18.234 18.234 0 0 0 37.763 71.665 A 15.736 15.736 0 0 0 40.35 69.4 A 10.38 10.38 0 0 0 43.046 63.136 A 13.761 13.761 0 0 0 43.1 61.9 A 11.947 11.947 0 0 0 42.485 58.005 A 10.48 10.48 0 0 0 40.75 54.85 A 22.285 22.285 0 0 0 37.285 51.397 A 28.208 28.208 0 0 0 34.7 49.55 A 108.549 108.549 0 0 0 27.028 45.118 A 118.033 118.033 0 0 0 26.9 45.05 Q 22.8 42.9 19.1 40.4 A 24.663 24.663 0 0 1 14.825 36.775 A 21.507 21.507 0 0 1 13.05 34.6 A 12.62 12.62 0 0 1 10.829 28.785 A 16.385 16.385 0 0 1 10.7 26.7 A 18.725 18.725 0 0 1 11.279 22.189 Q 11.757 20.259 12.632 18.222 A 30.87 30.87 0 0 1 12.75 17.95 A 30.653 30.653 0 0 1 17.022 11.02 A 36.063 36.063 0 0 1 18.6 9.2 A 29.376 29.376 0 0 1 26.966 2.958 A 33.699 33.699 0 0 1 27.8 2.55 A 26.855 26.855 0 0 1 37.169 0.106 A 32.395 32.395 0 0 1 39.8 0 A 25.784 25.784 0 0 1 43.177 0.205 Q 46.875 0.695 48.913 2.36 A 6.772 6.772 0 0 1 49.5 2.9 Q 52.3 5.8 52.3 10.5 A 24.006 24.006 0 0 1 51.866 14.946 A 31.285 31.285 0 0 1 51 18.4 Q 49.7 22.6 47.85 26.4 A 89.251 89.251 0 0 1 46.484 29.096 Q 45.363 31.213 44.3 32.9 Q 42.1 32.4 41 31.15 Q 39.929 29.933 39.901 27.909 A 7.892 7.892 0 0 1 39.9 27.8 A 12.371 12.371 0 0 1 40.087 25.722 Q 40.299 24.482 40.75 23.1 A 74.962 74.962 0 0 1 42.127 19.26 A 87.206 87.206 0 0 1 42.75 17.7 A 75.623 75.623 0 0 0 44.307 13.585 A 66.654 66.654 0 0 0 44.75 12.25 A 21.169 21.169 0 0 0 45.268 10.354 Q 45.476 9.414 45.554 8.574 A 10.567 10.567 0 0 0 45.6 7.6 A 4.959 4.959 0 0 0 45.476 6.457 A 3.27 3.27 0 0 0 44.55 4.8 A 2.632 2.632 0 0 0 43.737 4.295 Q 42.55 3.8 40.3 3.8 A 19.067 19.067 0 0 0 33.55 4.982 A 18.013 18.013 0 0 0 31.5 5.9 Q 27.5 8 24.55 11.2 A 27.04 27.04 0 0 0 21.39 15.337 A 22.99 22.99 0 0 0 20 17.95 Q 18.4 21.5 18.4 24.4 Q 18.4 28 20.7 30.55 Q 23 33.1 26.65 35.2 Q 30.3 37.3 34.35 39.4 Q 38.4 41.5 42.05 44.1 Q 45.7 46.7 48 50.3 A 14.26 14.26 0 0 1 49.949 55.282 A 19.803 19.803 0 0 1 50.3 59.1 A 19.58 19.58 0 0 1 49.637 64.287 A 16.463 16.463 0 0 1 47.95 68.3 Q 45.6 72.3 41.6 75.05 Q 37.6 77.8 32.75 79.25 Q 27.9 80.7 22.9 80.7 Z M 121.6 55.2 L 123.5 56.7 A 28.059 28.059 0 0 1 122.141 59.501 Q 120.469 62.479 118.5 63.85 Q 116.199 65.453 114.032 65.739 A 7.131 7.131 0 0 1 113.1 65.8 A 7.443 7.443 0 0 1 107.645 63.548 A 9.143 9.143 0 0 1 107.5 63.4 Q 105.2 61 103.9 57.5 Q 101.4 61.8 98.35 66.05 A 43.579 43.579 0 0 1 95.244 69.918 A 32.351 32.351 0 0 1 92 73.05 A 14.16 14.16 0 0 1 89.68 74.644 Q 88.146 75.473 86.612 75.708 A 8.001 8.001 0 0 1 85.4 75.8 A 5.988 5.988 0 0 1 83.623 75.554 Q 81.79 74.985 80.957 73.107 A 6.08 6.08 0 0 1 80.85 72.85 A 18.253 18.253 0 0 1 79.981 69.832 Q 79.677 68.326 79.55 66.606 A 32.215 32.215 0 0 1 79.5 65.8 Q 79.577 64.882 79.624 63.435 A 105.85 105.85 0 0 0 79.65 62.5 Q 79.699 60.451 79.796 59.068 A 40.227 40.227 0 0 1 79.8 59 Q 77.7 62.8 75.2 66.5 Q 72.7 70.2 69.9 72.6 A 11.028 11.028 0 0 1 67.621 74.132 A 8.078 8.078 0 0 1 64 75 A 6.434 6.434 0 0 1 59.044 72.749 A 9.314 9.314 0 0 1 58.4 71.95 A 11.572 11.572 0 0 1 56.338 66.672 A 15.156 15.156 0 0 1 56.2 64.6 Q 56.2 61.7 57.15 57.9 Q 58.1 54.1 59.55 50.5 Q 61 46.9 62.55 44.5 A 12.504 12.504 0 0 1 63.2 43.58 Q 64.324 42.144 65.245 42.102 A 1.213 1.213 0 0 1 65.3 42.1 A 2.07 2.07 0 0 1 65.708 42.149 Q 66.431 42.297 67.75 42.9 Q 69.5 43.7 69.9 45 A 18.194 18.194 0 0 0 69.208 46.1 Q 68.543 47.233 67.749 48.859 A 74.755 74.755 0 0 0 67.25 49.9 Q 65.7 53.2 64.55 56.95 A 28.836 28.836 0 0 0 63.764 60.107 Q 63.4 62.057 63.4 63.8 Q 63.4 64.353 63.528 65.626 A 64.141 64.141 0 0 0 63.55 65.85 Q 63.7 67.3 64.4 68.5 A 2.51 2.51 0 0 0 65.046 69.249 Q 65.556 69.635 66.258 69.691 A 3.062 3.062 0 0 0 66.5 69.7 A 4.233 4.233 0 0 0 68.329 69.255 Q 69.61 68.644 70.969 67.197 A 15.782 15.782 0 0 0 71.15 67 Q 73.6 64.3 76.1 60.2 Q 78.6 56.1 80.8 51.8 A 157.292 157.292 0 0 1 81.232 49.8 Q 81.85 47.025 82.3 45.6 Q 82.9 43.7 83.55 43.2 A 2.407 2.407 0 0 1 84.852 42.71 A 3.062 3.062 0 0 1 85.1 42.7 Q 87 42.7 88.05 43.45 A 2.41 2.41 0 0 1 89.078 45.209 A 3.388 3.388 0 0 1 89.1 45.6 Q 89.1 45.685 88.955 46.241 A 38.162 38.162 0 0 1 88.9 46.45 A 21.656 21.656 0 0 1 88.829 46.712 Q 88.718 47.108 88.644 47.298 A 1.213 1.213 0 0 1 88.6 47.4 A 35.24 35.24 0 0 0 88.164 49.095 Q 87.945 50.04 87.74 51.114 A 67.448 67.448 0 0 0 87.5 52.45 Q 87 55.4 86.7 58.75 Q 86.4 62.1 86.4 65.5 A 31.12 31.12 0 0 0 86.429 66.882 Q 86.493 68.317 86.7 69.25 Q 87 70.6 88.2 70.6 Q 89.6 70.6 91.45 68.9 A 23.134 23.134 0 0 0 92.986 67.338 Q 93.703 66.541 94.447 65.593 A 44.698 44.698 0 0 0 95.35 64.4 Q 97.4 61.6 99.35 58.25 Q 101.3 54.9 102.9 51.5 Q 102.9 46.994 103.464 44.365 A 13.172 13.172 0 0 1 103.65 43.6 Q 104.33 41.152 105.421 40.061 A 3.574 3.574 0 0 1 105.65 39.85 Q 106.9 38.8 108.4 38.8 A 6.078 6.078 0 0 1 109.652 38.92 Q 110.382 39.074 110.921 39.426 A 2.94 2.94 0 0 1 111.85 40.4 A 9.97 9.97 0 0 1 112.31 41.261 Q 112.747 42.196 112.795 42.926 A 2.69 2.69 0 0 1 112.8 43.1 A 3.584 3.584 0 0 1 112.3 44.95 Q 111.8 45.8 111.5 46.5 A 22.418 22.418 0 0 0 110.897 47.928 Q 110.611 48.671 110.334 49.522 A 40.664 40.664 0 0 0 110.15 50.1 A 12.85 12.85 0 0 0 109.742 51.909 Q 109.595 52.848 109.537 53.939 A 27.816 27.816 0 0 0 109.5 55.4 Q 109.5 57.1 109.85 58.85 A 7.435 7.435 0 0 0 110.262 60.234 A 5.347 5.347 0 0 0 111.15 61.7 A 3.064 3.064 0 0 0 112.811 62.682 A 4.717 4.717 0 0 0 113.9 62.8 Q 115.7 62.8 117.55 61.2 Q 119.076 59.881 120.839 56.658 A 44.538 44.538 0 0 0 121.6 55.2 Z M 166.2 54.7 L 168.1 56.6 A 44.945 44.945 0 0 1 164.399 63.363 A 38.735 38.735 0 0 1 162.35 66.15 A 34.625 34.625 0 0 1 159.023 69.748 A 25.67 25.67 0 0 1 155.3 72.65 A 15.847 15.847 0 0 1 151.751 74.356 A 12.599 12.599 0 0 1 147.8 75 Q 144.405 75 142.45 73.217 A 6.307 6.307 0 0 1 141.7 72.4 Q 139.7 69.8 139.5 66.8 L 139.5 66.5 L 139.5 66.3 Q 136.457 69.952 133.791 72.446 A 39.388 39.388 0 0 1 132.15 73.9 A 12.892 12.892 0 0 1 129.188 75.79 A 10.087 10.087 0 0 1 125 76.7 Q 121.7 76.7 119.25 74.5 Q 116.8 72.3 116.8 67.9 A 17.806 17.806 0 0 1 117.226 64.131 Q 117.594 62.43 118.282 60.61 A 30.002 30.002 0 0 1 118.4 60.3 A 37.073 37.073 0 0 1 121.397 54.332 A 43.658 43.658 0 0 1 122.8 52.2 Q 125.6 48.2 129.2 44.95 A 33.512 33.512 0 0 1 136.009 40.153 A 31.122 31.122 0 0 1 136.9 39.7 A 19.952 19.952 0 0 1 141.737 38.037 A 17.104 17.104 0 0 1 145.1 37.7 A 13.972 13.972 0 0 1 148.701 38.144 A 10.955 10.955 0 0 1 152.4 39.9 A 7.647 7.647 0 0 1 154.343 41.919 Q 155.4 43.563 155.4 45.7 A 6.005 6.005 0 0 1 155.219 47.224 A 3.865 3.865 0 0 1 153.5 49.6 A 5.522 5.522 0 0 1 150.627 50.446 Q 150.069 50.459 149.472 50.378 A 8.66 8.66 0 0 1 149 50.3 Q 149.2 49.4 149.35 48.5 Q 149.5 47.6 149.5 46.6 Q 149.5 44.6 148.7 43 A 2.642 2.642 0 0 0 147.177 41.686 Q 146.679 41.503 146.049 41.437 A 7.212 7.212 0 0 0 145.3 41.4 A 9.088 9.088 0 0 0 141.985 42.053 Q 140.82 42.506 139.638 43.276 A 15.631 15.631 0 0 0 139.6 43.3 A 24.751 24.751 0 0 0 136.159 46.043 A 31.322 31.322 0 0 0 134.05 48.25 Q 131.4 51.3 129.3 54.95 Q 127.2 58.6 126 62.1 A 25.33 25.33 0 0 0 125.223 64.829 Q 124.906 66.261 124.827 67.554 A 13.83 13.83 0 0 0 124.8 68.4 A 6.557 6.557 0 0 0 124.892 69.548 Q 125.259 71.6 127.1 71.6 Q 128.76 71.6 130.68 70.428 A 14.496 14.496 0 0 0 132.2 69.35 Q 134.957 67.135 137.761 63.806 A 55.97 55.97 0 0 0 137.85 63.7 Q 140.7 60.3 143.3 56.75 A 588.87 588.87 0 0 1 145.152 54.235 Q 145.882 53.249 146.544 52.365 A 303.062 303.062 0 0 1 147.8 50.7 A 1.238 1.238 0 0 1 148.007 50.437 A 0.832 0.832 0 0 1 148.6 50.2 A 9.841 9.841 0 0 1 148.811 50.256 Q 149.149 50.349 149.754 50.531 A 115.21 115.21 0 0 1 150.15 50.65 Q 151.3 51 152.3 51.7 Q 153.3 52.4 153.3 53.5 A 3.127 3.127 0 0 1 153.209 54.216 Q 153.048 54.897 152.603 55.762 A 12.095 12.095 0 0 1 152.45 56.05 Q 151.6 57.6 150.45 59.45 A 33.964 33.964 0 0 0 148.668 62.688 A 30.766 30.766 0 0 0 148.45 63.15 A 9.933 9.933 0 0 0 147.84 64.852 A 7.501 7.501 0 0 0 147.6 66.7 Q 147.6 68 148.3 69.15 A 2.304 2.304 0 0 0 149.943 70.245 A 3.723 3.723 0 0 0 150.6 70.3 A 4.736 4.736 0 0 0 152.105 70.02 Q 153.528 69.537 155.407 68.227 A 32.486 32.486 0 0 0 157.35 66.75 Q 161.7 63.2 166.2 54.7 Z M 294.2 54.7 L 296.1 56.6 A 44.945 44.945 0 0 1 292.399 63.363 A 38.735 38.735 0 0 1 290.35 66.15 A 34.625 34.625 0 0 1 287.023 69.748 A 25.67 25.67 0 0 1 283.3 72.65 A 15.847 15.847 0 0 1 279.751 74.356 A 12.599 12.599 0 0 1 275.8 75 Q 272.405 75 270.45 73.217 A 6.307 6.307 0 0 1 269.7 72.4 Q 267.7 69.8 267.5 66.8 L 267.5 66.5 L 267.5 66.3 Q 264.457 69.952 261.791 72.446 A 39.388 39.388 0 0 1 260.15 73.9 A 12.892 12.892 0 0 1 257.188 75.79 A 10.087 10.087 0 0 1 253 76.7 Q 249.7 76.7 247.25 74.5 Q 244.8 72.3 244.8 67.9 A 17.806 17.806 0 0 1 245.226 64.131 Q 245.594 62.43 246.282 60.61 A 30.002 30.002 0 0 1 246.4 60.3 A 37.073 37.073 0 0 1 249.397 54.332 A 43.658 43.658 0 0 1 250.8 52.2 Q 253.6 48.2 257.2 44.95 A 33.512 33.512 0 0 1 264.009 40.153 A 31.122 31.122 0 0 1 264.9 39.7 A 19.952 19.952 0 0 1 269.737 38.037 A 17.104 17.104 0 0 1 273.1 37.7 A 13.972 13.972 0 0 1 276.701 38.144 A 10.955 10.955 0 0 1 280.4 39.9 A 7.647 7.647 0 0 1 282.343 41.919 Q 283.4 43.563 283.4 45.7 A 6.005 6.005 0 0 1 283.219 47.224 A 3.865 3.865 0 0 1 281.5 49.6 A 5.522 5.522 0 0 1 278.627 50.446 Q 278.069 50.459 277.472 50.378 A 8.66 8.66 0 0 1 277 50.3 Q 277.2 49.4 277.35 48.5 Q 277.5 47.6 277.5 46.6 Q 277.5 44.6 276.7 43 A 2.642 2.642 0 0 0 275.177 41.686 Q 274.679 41.503 274.049 41.437 A 7.212 7.212 0 0 0 273.3 41.4 A 9.088 9.088 0 0 0 269.985 42.053 Q 268.82 42.506 267.638 43.276 A 15.631 15.631 0 0 0 267.6 43.3 A 24.751 24.751 0 0 0 264.159 46.043 A 31.322 31.322 0 0 0 262.05 48.25 Q 259.4 51.3 257.3 54.95 Q 255.2 58.6 254 62.1 A 25.33 25.33 0 0 0 253.223 64.829 Q 252.906 66.261 252.827 67.554 A 13.83 13.83 0 0 0 252.8 68.4 A 6.557 6.557 0 0 0 252.892 69.548 Q 253.259 71.6 255.1 71.6 Q 256.76 71.6 258.68 70.428 A 14.496 14.496 0 0 0 260.2 69.35 Q 262.957 67.135 265.761 63.806 A 55.97 55.97 0 0 0 265.85 63.7 Q 268.7 60.3 271.3 56.75 A 588.87 588.87 0 0 1 273.152 54.235 Q 273.882 53.249 274.544 52.365 A 303.062 303.062 0 0 1 275.8 50.7 A 1.238 1.238 0 0 1 276.007 50.437 A 0.832 0.832 0 0 1 276.6 50.2 A 9.841 9.841 0 0 1 276.811 50.256 Q 277.149 50.349 277.754 50.531 A 115.21 115.21 0 0 1 278.15 50.65 Q 279.3 51 280.3 51.7 Q 281.3 52.4 281.3 53.5 A 3.127 3.127 0 0 1 281.209 54.216 Q 281.048 54.897 280.603 55.762 A 12.095 12.095 0 0 1 280.45 56.05 Q 279.6 57.6 278.45 59.45 A 33.964 33.964 0 0 0 276.668 62.688 A 30.766 30.766 0 0 0 276.45 63.15 A 9.933 9.933 0 0 0 275.84 64.852 A 7.501 7.501 0 0 0 275.6 66.7 Q 275.6 68 276.3 69.15 A 2.304 2.304 0 0 0 277.943 70.245 A 3.723 3.723 0 0 0 278.6 70.3 A 4.736 4.736 0 0 0 280.105 70.02 Q 281.528 69.537 283.407 68.227 A 32.486 32.486 0 0 0 285.35 66.75 Q 289.7 63.2 294.2 54.7 Z M 250 54.7 L 251.7 56.1 A 60.555 60.555 0 0 1 248.397 62.705 A 52.508 52.508 0 0 1 246.95 65.05 Q 244.3 69.1 241.05 71.55 Q 237.8 74 233.8 74 A 12.524 12.524 0 0 1 231.543 73.81 Q 229.26 73.391 227.85 72.05 Q 225.8 70.1 225.8 67.1 A 12.964 12.964 0 0 1 226.047 64.637 A 16.692 16.692 0 0 1 226.5 62.85 Q 227.2 60.6 227.9 58.3 A 16.474 16.474 0 0 0 228.48 55.674 A 13.465 13.465 0 0 0 228.6 53.9 Q 228.6 51.7 227.55 50.85 Q 226.5 50 225.1 50 A 8.23 8.23 0 0 0 221.919 50.672 Q 220.818 51.13 219.699 51.901 A 16.087 16.087 0 0 0 218.95 52.45 A 32.867 32.867 0 0 0 215.47 55.602 A 42.562 42.562 0 0 0 212.85 58.6 Q 209.9 62.3 207.3 66.3 A 259.891 259.891 0 0 0 205.159 69.647 Q 204.192 71.187 203.349 72.585 A 151.818 151.818 0 0 0 202.8 73.5 Q 200.9 73.5 199.2 72.85 A 6.334 6.334 0 0 1 196.688 71.077 A 7.831 7.831 0 0 1 196.3 70.6 A 2.68 2.68 0 0 1 196.371 70.341 Q 196.557 69.751 197.164 68.25 A 129.046 129.046 0 0 1 197.45 67.55 A 124.227 124.227 0 0 0 198.273 65.497 Q 198.63 64.583 199.012 63.571 A 229.971 229.971 0 0 0 199.8 61.45 A 77.069 77.069 0 0 0 201.846 54.97 A 84.824 84.824 0 0 0 202.1 54 Q 203.1 50.1 203.1 46.9 Q 203.59 46.341 204.447 45.781 A 12.608 12.608 0 0 1 205.25 45.3 Q 206.7 44.5 208.3 44.5 A 5.946 5.946 0 0 1 209.616 44.633 Q 211.438 45.048 211.74 46.765 A 4.242 4.242 0 0 1 211.8 47.5 A 9.352 9.352 0 0 1 211.765 48.266 Q 211.695 49.105 211.489 50.291 A 44.486 44.486 0 0 1 211.35 51.05 Q 210.9 53.4 210.1 56.4 Q 212.7 52.9 215.8 49.8 A 34.101 34.101 0 0 1 219.767 46.379 A 28.417 28.417 0 0 1 222.25 44.75 Q 225.6 42.8 229 42.8 A 10.093 10.093 0 0 1 231.468 43.084 A 6.547 6.547 0 0 1 235.35 45.7 Q 237.4 48.6 237.4 52.1 Q 237.4 55.1 236.4 57.7 Q 235.4 60.3 234.45 62.6 A 12.76 12.76 0 0 0 233.669 65.226 A 10.634 10.634 0 0 0 233.5 67.1 A 5.371 5.371 0 0 0 233.553 67.883 Q 233.7 68.873 234.25 69.35 Q 235 70 235.9 70 A 5.749 5.749 0 0 0 238.185 69.499 Q 239.015 69.141 239.869 68.528 A 13.114 13.114 0 0 0 240.9 67.7 Q 243.46 65.436 245.777 61.961 A 40.119 40.119 0 0 0 245.85 61.85 A 68.465 68.465 0 0 0 249.887 54.925 A 63.138 63.138 0 0 0 250 54.7 Z M 165.3 61.9 L 163.8 59 Q 164.872 57.01 166.472 53.729 A 346.683 346.683 0 0 0 167.5 51.6 A 99.553 99.553 0 0 0 170.025 45.852 A 126.991 126.991 0 0 0 171.9 40.9 A 3.335 3.335 0 0 1 170.988 39.148 A 4.854 4.854 0 0 1 170.9 38.2 A 8.311 8.311 0 0 1 172.214 33.734 A 10.235 10.235 0 0 1 172.5 33.3 A 9.922 9.922 0 0 1 173.245 32.349 Q 174.452 31 175.6 31 Q 176.8 31 177.35 32.35 A 17.83 17.83 0 0 1 177.565 32.9 Q 177.856 33.688 177.894 34.087 A 1.176 1.176 0 0 1 177.9 34.2 A 1.903 1.903 0 0 1 177.874 34.489 Q 177.791 35.015 177.45 36 A 421.504 421.504 0 0 0 177.241 36.607 Q 176.965 37.408 176.816 37.855 A 54.136 54.136 0 0 0 176.8 37.9 A 1.861 1.861 0 0 0 177.115 38.752 Q 177.486 39.32 178.286 39.875 A 8.056 8.056 0 0 0 178.55 40.05 Q 179.968 40.953 181.719 42.114 A 291.92 291.92 0 0 1 182.3 42.5 Q 184.4 43.9 186 46 Q 187.6 48.1 187.6 51.3 A 14.016 14.016 0 0 1 186.929 55.521 A 17.199 17.199 0 0 1 186.3 57.2 A 120.786 120.786 0 0 1 184.675 60.794 A 101.176 101.176 0 0 1 183.7 62.8 Q 182.823 64.554 182.538 65.99 A 6.732 6.732 0 0 0 182.4 67.3 A 4.038 4.038 0 0 0 182.447 67.94 Q 182.588 68.813 183.15 69.15 A 3.143 3.143 0 0 0 184.358 69.565 A 4.021 4.021 0 0 0 184.9 69.6 A 8.921 8.921 0 0 0 187.664 69.142 Q 188.763 68.785 189.9 68.15 Q 192.5 66.7 195 64.4 Q 197.5 62.1 199.4 59.55 Q 201.3 57 202.3 54.9 L 204.7 56.7 A 30.913 30.913 0 0 1 201.753 61.885 A 39.337 39.337 0 0 1 199.2 65.15 Q 195.6 69.3 191.2 71.95 Q 186.8 74.6 182.3 74.6 A 11.476 11.476 0 0 1 179.722 74.326 A 7.963 7.963 0 0 1 176.3 72.65 A 6.387 6.387 0 0 1 174.024 68.057 A 8.911 8.911 0 0 1 174 67.4 A 12.871 12.871 0 0 1 174.395 64.312 Q 174.722 62.989 175.319 61.587 A 21.489 21.489 0 0 1 175.4 61.4 Q 176.8 58.2 178.25 55.1 Q 179.306 52.843 179.593 50.956 A 9.019 9.019 0 0 0 179.7 49.6 A 5.805 5.805 0 0 0 179.354 47.563 A 5.184 5.184 0 0 0 178.2 45.75 Q 176.7 44.2 174.7 43.2 Q 172.5 48.7 169.75 53.85 Q 167 59 165.3 61.9 Z" vector-effect="non-scaling-stroke"/></g></svg>