<?xml version="1.0" standalone="no"?>
<!DOCTYPE svg PUBLIC "-//W3C//DTD SVG 20010904//EN"
 "http://www.w3.org/TR/2001/REC-SVG-20010904/DTD/svg10.dtd">
<svg version="1.0" xmlns="http://www.w3.org/2000/svg"
 width="512.000000pt" height="512.000000pt" viewBox="0 0 512.000000 512.000000"
 preserveAspectRatio="xMidYMid meet">

<g transform="translate(0.000000,512.000000) scale(0.100000,-0.100000)"
fill="#000000" stroke="none">
<path d="M1304 3868 c-688 -689 -1259 -1264 -1268 -1278 -40 -60 6 -140 81
-140 37 0 63 25 1188 1150 633 633 1153 1150 1158 1150 4 0 7 -1055 7 -2344
l0 -2345 24 -28 c34 -39 98 -39 132 0 l24 28 0 2345 c0 1289 3 2344 7 2344 5
0 525 -517 1158 -1150 1125 -1125 1151 -1150 1188 -1150 75 0 121 80 81 140
-17 26 -2515 2530 -2524 2530 -3 0 -568 -564 -1256 -1252z"/>
</g>
</svg>
